<?xml version="1.0" standalone="no"?>
<!DOCTYPE svg PUBLIC "-//W3C//DTD SVG 20010904//EN"
 "http://www.w3.org/TR/2001/REC-SVG-20010904/DTD/svg10.dtd">
<svg version="1.0" xmlns="http://www.w3.org/2000/svg"
 width="2827.000000pt" height="2827.000000pt" viewBox="0 0 2827.000000 2827.000000"
 preserveAspectRatio="xMidYMid meet">

<g transform="translate(0.000000,2827.000000) scale(0.100000,-0.100000)"
fill="#000000" stroke="none">
<path d="M0 14135 l0 -14135 14135 0 14135 0 0 14135 0 14135 -14135 0 -14135
0 0 -14135z m14382 7152 c40 -20 98 -72 229 -204 405 -412 553 -563 559 -574
4 -6 86 -90 182 -187 96 -97 331 -339 523 -537 192 -198 417 -430 500 -515 83
-85 304 -312 490 -505 592 -609 1003 -1031 1280 -1313 109 -111 201 -206 204
-211 4 -5 102 -106 218 -225 117 -118 231 -242 252 -276 41 -62 71 -143 90
-238 8 -37 11 -749 11 -2325 0 -2427 2 -2318 -48 -2459 -30 -86 -71 -139 -246
-318 -89 -91 -321 -329 -516 -530 -195 -201 -446 -459 -559 -575 -283 -290
-663 -680 -1071 -1100 -96 -99 -258 -265 -360 -370 -102 -104 -268 -275 -370
-380 -101 -104 -270 -278 -375 -385 -104 -107 -273 -281 -375 -385 -631 -649
-608 -630 -755 -630 -68 0 -88 4 -137 29 -62 31 -38 8 -653 641 -187 193 -421
433 -521 535 -100 102 -199 203 -220 225 -20 22 -114 119 -208 215 -94 96
-254 261 -355 365 -224 229 -472 484 -721 740 -102 105 -266 273 -365 375
-182 187 -236 243 -896 920 -531 544 -521 532 -571 706 l-23 79 0 2295 c0
2162 1 2299 18 2370 19 83 60 175 101 229 14 19 81 91 148 160 68 69 271 279
453 466 181 187 407 419 500 515 94 96 252 258 350 360 209 214 442 454 711
730 105 107 352 362 549 565 476 490 1022 1052 1216 1250 85 88 212 218 280
289 133 138 179 174 249 200 65 23 164 16 232 -17z"/>
<path d="M13825 19639 c-56 -61 -533 -552 -935 -964 -295 -302 -582 -597 -760
-780 -272 -281 -475 -490 -660 -680 -283 -291 -866 -891 -982 -1010 l-108
-110 0 -1585 0 -1585 63 98 c34 54 243 380 465 725 222 345 416 647 431 672
57 90 380 592 563 875 46 72 121 189 166 260 46 72 120 186 164 255 44 69 101
157 125 195 38 61 137 214 504 785 81 126 314 489 391 610 23 36 65 101 94
145 28 44 162 253 298 464 l246 383 -2 655 -3 655 -60 -63z"/>
<path d="M14610 19039 l0 -656 221 -344 c122 -189 283 -441 359 -559 76 -118
275 -429 443 -690 169 -261 325 -504 347 -540 23 -36 83 -130 135 -210 51 -80
153 -238 227 -353 73 -114 154 -240 180 -280 25 -39 62 -97 81 -127 19 -30 70
-110 113 -177 43 -68 243 -378 443 -690 466 -726 427 -664 712 -1108 l244
-380 3 1579 2 1578 -32 37 c-17 20 -196 205 -397 411 -201 206 -447 458 -546
560 -99 102 -268 275 -375 385 -107 110 -197 202 -200 205 -14 15 -403 415
-865 890 -88 91 -311 320 -495 510 -184 190 -394 406 -467 480 l-133 135 0
-656z"/>
<path d="M13827 16937 c-32 -50 -86 -135 -120 -188 -34 -52 -118 -183 -186
-290 -69 -106 -153 -237 -186 -289 -34 -52 -160 -248 -280 -435 -289 -451
-291 -453 -515 -802 -107 -167 -217 -338 -245 -382 -27 -43 -119 -186 -203
-317 -85 -132 -218 -340 -298 -464 -79 -124 -166 -259 -193 -300 -26 -41 -125
-194 -218 -340 -93 -146 -196 -305 -228 -355 -32 -49 -73 -112 -90 -140 -53
-83 -207 -322 -294 -458 -45 -70 -81 -132 -79 -136 2 -5 154 -163 338 -352
446 -458 615 -632 806 -829 88 -91 221 -227 295 -303 l134 -138 813 -2 812 -2
0 3308 c0 1819 -1 3307 -2 3307 -2 0 -29 -42 -61 -93z"/>
<path d="M14610 13722 l0 -3302 808 -2 807 -3 25 25 c123 126 681 700 879 905
91 94 244 251 340 350 97 99 213 218 258 265 l82 85 -27 40 c-15 23 -50 76
-77 120 -28 43 -291 455 -587 914 -295 460 -587 916 -650 1013 -62 98 -158
248 -213 333 -198 306 -525 816 -636 990 -73 114 -334 521 -424 660 -18 28
-155 241 -305 475 -150 234 -274 427 -276 429 -2 2 -4 -1481 -4 -3297z"/>
<path d="M13398 9670 l-486 -5 61 -66 c34 -37 215 -224 402 -415 187 -192 379
-389 427 -439 l88 -90 0 513 c0 281 -1 511 -2 510 -2 -2 -222 -5 -490 -8z"/>
<path d="M14610 9175 c0 -272 4 -495 9 -495 4 0 156 152 337 338 262 269 454
465 633 648 2 2 -217 4 -487 4 l-492 0 0 -495z"/>
</g>
</svg>
