<?xml version="1.0" encoding="UTF-8"?>
<svg version="1.1" xmlns="http://www.w3.org/2000/svg" width="2827" height="2827">
<path d="M0 0 C932.91 0 1865.82 0 2827 0 C2827 932.91 2827 1865.82 2827 2827 C1894.09 2827 961.18 2827 0 2827 C0 1894.09 0 961.18 0 0 Z " fill="#7ED3A5" transform="translate(0,0)"/>
<path d="M0 0 C77.37103576 -2.13416347 154.74565825 -4.1044045 232.1383667 -5.25054932 C233.29132978 -5.26766839 234.44429287 -5.28478747 235.63219422 -5.30242531 C260.71416215 -5.67390374 285.79644112 -6.01735406 310.87918349 -6.33210085 C323.18710249 -6.48671471 335.49493749 -6.64749508 347.80273438 -6.81152344 C349.02723969 -6.82773756 350.251745 -6.84395168 351.51335653 -6.86065714 C390.91521697 -7.38526458 430.29442464 -8.31350289 469.6826638 -9.46085538 C510.30212603 -10.64186855 550.90917262 -11.3962995 591.54550455 -11.64545877 C597.33841936 -11.68116825 603.13129289 -11.72154654 608.92415619 -11.76477814 C610.06381063 -11.77313859 611.20346508 -11.78149904 612.37765451 -11.79011284 C628.21743829 -11.91670551 644.02660541 -12.32845971 659.85339109 -12.97480643 C686.48952563 -14.06254814 713.07446065 -14.62763811 739.73144531 -14.07714844 C740.73429914 -14.05742492 741.73715296 -14.0377014 742.7703963 -14.0173802 C807.02784165 -12.64063247 848.74270577 4.94952812 893.5695889 51.46456957 C912.87681212 71.75561582 930.93607422 93.17854744 947.66165967 115.64318325 C948.43148059 116.6759216 949.20130151 117.70865994 949.99445033 118.7726934 C950.9818479 120.11381609 950.9818479 120.11381609 951.98919289 121.48203216 C954.15641269 124.1958627 956.50559015 126.58652428 959 129 C1024.54396884 194.54396884 1090.08793767 260.08793767 1372.09041828 542.21697241 C1374.26285129 544.39226752 1376.56879813 546.25327332 1379.02062327 548.10662121 C1409.28869671 571.04456775 1420.27070777 592.28541327 1425.4983069 628.89071795 C1426.40217864 635.45207441 1427.16809426 642.02730663 1427.90428092 648.60931416 C1428.5958505 654.77565647 1429.36253782 660.92909048 1430.17099261 667.08114946 C1433.7737771 694.58847346 1436.74135185 722.14051346 1439.40234375 749.75390625 C1439.50192776 750.78406257 1439.60151177 751.81421889 1439.70411348 752.87559207 C1446.19397917 820.13285678 1450.47515571 887.46084783 1453.46165763 954.95933275 C1453.82704753 963.18963421 1454.21536547 971.4186391 1454.61312008 979.64743376 C1460.21380269 1096.26351362 1461.18372159 1214.94633726 1277.93623251 1606.64615076 C1230.27725937 1659.11056115 1178.96646474 1707.6325183 1126.25320712 1754.95174005 C1123.6195343 1757.31740951 1120.98823858 1759.68569367 1118.35774297 1762.05489522 C1039.87899249 1832.73335079 959.29795861 1900.59881457 854.3734436 1980.44551086 C853.79284681 1980.88294545 853.21225003 1981.32038003 852.6140594 1981.77107021 C848.86665593 1984.5936418 845.11141342 1987.40546484 841.35102272 1990.21072865 C840.42094412 1990.90910196 839.49086552 1991.60747527 838.53260272 1992.32701141 C837.69242514 1992.95027549 836.85224756 1993.57353957 835.98661005 1994.21569043 C835.25942838 1994.75770385 834.53224671 1995.29971726 833.78302924 1995.85815533 C832 1997 832 1997 830 1997 C830 1997.66 830 1998.32 830 1999 C751.67275381 1999.85812187 673.3449389 2000.65293578 595.01425171 2001.11715698 C593.85248214 2001.12405984 592.69071257 2001.13096269 591.49373786 2001.13807472 C566.23727133 2001.28776648 540.980755 2001.4262689 515.7241644 2001.55326647 C503.33595536 2001.61562605 490.94775978 2001.68045474 478.55957031 2001.74658203 C477.32688367 2001.75311998 476.09419703 2001.75965794 474.82415625 2001.76639401 C434.96373346 2001.97896167 395.10688561 2002.35413597 355.24862321 2002.81486104 C314.24315952 2003.28797885 273.23966895 2003.59461027 232.23152228 2003.6957495 C226.42192513 2003.71015443 220.61233465 2003.72643618 214.80274582 2003.74386215 C213.08785492 2003.74891888 213.08785492 2003.74891888 211.33831976 2003.75407776 C193.03131791 2003.81286508 174.73046888 2004.04391293 156.42596377 2004.3416017 C137.96283896 2004.63811345 119.50572778 2004.74788607 101.04031195 2004.67506887 C91.05512912 2004.64067839 81.08634104 2004.68388965 71.10449028 2004.96027374 C5.70500384 2006.70485854 5.70500384 2006.70485854 -18.638214 1984.35921749 C-29.23526327 1974.29464389 -38.4375541 1963.02069024 -47.18058662 1951.34194793 C-49.28307915 1948.63562067 -51.48103352 1946.31611174 -54 1944 C-128.91149902 1869.08850098 -203.82299805 1794.17700195 -584.25645167 1408.43652272 C-584.26273983 1407.24382921 -584.26902799 1406.0511357 -584.27550671 1404.82229996 C-584.27239716 1403.48428175 -584.26910438 1402.14626397 -584.26564884 1400.80824661 C-584.26924874 1399.39222373 -584.27372274 1397.97620283 -584.27899691 1396.56018519 C-584.29101783 1392.63781132 -584.29044583 1388.71552171 -584.28794191 1384.79313386 C-584.28738263 1380.53766029 -584.29829582 1376.28221413 -584.30775779 1372.02675319 C-584.32470217 1363.57256225 -584.33078322 1355.11839442 -584.33360582 1346.66418833 C-584.33747445 1336.54362471 -584.35283094 1326.42308682 -584.36836692 1316.30253557 C-584.40531366 1291.83807515 -584.42164975 1267.37361354 -584.43524528 1242.90913094 C-584.44178218 1231.34227661 -584.45060699 1219.77542435 -584.45962518 1208.20857173 C-584.49035362 1168.63602626 -584.51607053 1129.06348115 -584.52694798 1089.49092484 C-584.52764437 1087.00553319 -584.52834204 1084.52014155 -584.52904099 1082.03474991 C-584.52938652 1080.80218492 -584.52973205 1079.56961993 -584.53008805 1078.29970449 C-584.53184154 1072.05462069 -584.53361286 1065.80953691 -584.53540039 1059.56445312 C-584.53574993 1058.32508402 -584.53609947 1057.08571491 -584.53645961 1055.80878916 C-584.54798796 1015.60754801 -584.58735064 975.40640044 -584.6431467 935.20519799 C-584.70199108 892.73030884 -584.73546812 850.25547392 -584.73996013 807.78054309 C-584.74054916 803.1211794 -584.74124415 798.46181575 -584.74201775 793.80245209 C-584.74219671 792.65513473 -584.74237567 791.50781737 -584.74256005 790.32573281 C-584.74604811 771.83260052 -584.77276632 753.33957097 -584.80774665 734.84647452 C-584.842305 716.27130063 -584.8511171 697.69625411 -584.83353604 679.12105516 C-584.82383745 668.07543338 -584.83372198 657.03022896 -584.87130921 645.98466471 C-584.89447256 638.61438468 -584.89239927 631.24439588 -584.86947103 623.87411571 C-584.85711623 619.66926916 -584.85601797 615.46522508 -584.88553984 611.26044622 C-584.91215885 607.43781604 -584.90677751 603.61664125 -584.87546248 599.79405886 C-584.8672091 597.76581357 -584.89344013 595.73751838 -584.92091355 593.70944238 C-584.80463059 585.09957624 -584.80463059 585.09957624 -582.47497814 581.91596565 C-580.72157763 580.40048759 -578.97004368 579.21098324 -577 578 C-575.31313356 576.35378095 -573.64516395 574.68789548 -572 573 C-545 546 -545 546 -542.2734375 543.30859375 C-539.96962414 541.06283849 -539.96962414 541.06283849 -538.125 538.5625 C-535.86842716 535.84133864 -533.43782796 533.73131032 -530.734375 531.47265625 C-527.53825929 528.75883728 -524.68094819 525.88523265 -522.125 522.5625 C-519.91098741 519.89266129 -517.55604562 517.81143401 -514.87890625 515.625 C-512.46026713 513.53320401 -510.24590702 511.27603096 -508 509 C-481 482 -481 482 -478.26953125 479.3046875 C-475.97767703 477.07376428 -475.97767703 477.07376428 -474.1875 474.625 C-471.72434879 471.66921855 -469.00378478 469.32293866 -466.0859375 466.828125 C-462.90135203 464.03713998 -459.96244135 461.02235589 -457 458 C-455.33471017 456.33195763 -453.66790169 454.66543073 -452 453 C-451.1028125 452.1028125 -450.205625 451.205625 -449.28125 450.28125 C-441 442 -441 442 -438.26953125 439.3046875 C-435.97767703 437.07376428 -435.97767703 437.07376428 -434.1875 434.625 C-431.72434879 431.66921855 -429.00378478 429.32293866 -426.0859375 426.828125 C-422.90125725 424.03705691 -419.96348438 421.02159191 -417 418 C-416.113125 417.13375 -415.22625 416.2675 -414.3125 415.375 C-411.9792956 413.07068716 -411.9792956 413.07068716 -410.125 410.5625 C-407.86842716 407.84133864 -405.43782796 405.73131032 -402.734375 403.47265625 C-399.53825929 400.75883728 -396.68094819 397.88523265 -394.125 394.5625 C-391.86842716 391.84133864 -389.43782796 389.73131032 -386.734375 387.47265625 C-383.56194832 384.77895162 -380.71232192 381.93338735 -378.1875 378.625 C-375.72434879 375.66921855 -373.00378478 373.32293866 -370.0859375 370.828125 C-366.90125725 368.03705691 -363.96348438 365.02159191 -361 362 C-360.113125 361.13375 -359.22625 360.2675 -358.3125 359.375 C-355.98780548 357.08243627 -355.98780548 357.08243627 -354.1875 354.625 C-351.72434879 351.66921855 -349.00378478 349.32293866 -346.0859375 346.828125 C-342.90125725 344.03705691 -339.96348438 341.02159191 -337 338 C-336.113125 337.13375 -335.22625 336.2675 -334.3125 335.375 C-331.98780548 333.08243627 -331.98780548 333.08243627 -330.1875 330.625 C-327.72434879 327.66921855 -325.00378478 325.32293866 -322.0859375 322.828125 C-318.90135203 320.03713998 -315.96244135 317.02235589 -313 314 C-311.33471017 312.33195763 -309.66790169 310.66543073 -308 309 C-307.1028125 308.1028125 -306.205625 307.205625 -305.28125 306.28125 C-297 298 -297 298 -294.26953125 295.3046875 C-291.97767703 293.07376428 -291.97767703 293.07376428 -290.1875 290.625 C-287.72434879 287.66921855 -285.00378478 285.32293866 -282.0859375 282.828125 C-278.90135203 280.03713998 -275.96244135 277.02235589 -273 274 C-271.33471017 272.33195763 -269.66790169 270.66543073 -268 269 C-267.1028125 268.1028125 -266.205625 267.205625 -265.28125 266.28125 C-257 258 -257 258 -254.2734375 255.30859375 C-251.96962414 253.06283849 -251.96962414 253.06283849 -250.125 250.5625 C-247.86842716 247.84133864 -245.43782796 245.73131032 -242.734375 243.47265625 C-239.53825929 240.75883728 -236.68094819 237.88523265 -234.125 234.5625 C-231.86842716 231.84133864 -229.43782796 229.73131032 -226.734375 227.47265625 C-223.53825929 224.75883728 -220.68094819 221.88523265 -218.125 218.5625 C-215.91098741 215.89266129 -213.55604562 213.81143401 -210.87890625 211.625 C-208.46026713 209.53320401 -206.24590702 207.27603096 -204 205 C-193 194 -193 194 -190.26953125 191.3046875 C-187.97767703 189.07376428 -187.97767703 189.07376428 -186.1875 186.625 C-183.72434879 183.66921855 -181.00378478 181.32293866 -178.0859375 178.828125 C-174.90135203 176.03713998 -171.96244135 173.02235589 -169 170 C-167.33471017 168.33195763 -165.66790169 166.66543073 -164 165 C-163.1028125 164.1028125 -162.205625 163.205625 -161.28125 162.28125 C-153 154 -153 154 -150.2734375 151.30859375 C-147.96962414 149.06283849 -147.96962414 149.06283849 -146.125 146.5625 C-143.86842716 143.84133864 -141.43782796 141.73131032 -138.734375 139.47265625 C-135.53825929 136.75883728 -132.68094819 133.88523265 -130.125 130.5625 C-127.86842716 127.84133864 -125.43782796 125.73131032 -122.734375 123.47265625 C-119.53825929 120.75883728 -116.68094819 117.88523265 -114.125 114.5625 C-111.86842716 111.84133864 -109.43782796 109.73131032 -106.734375 107.47265625 C-103.53825929 104.75883728 -100.68094819 101.88523265 -98.125 98.5625 C-95.86842716 95.84133864 -93.43782796 93.73131032 -90.734375 91.47265625 C-87.53825929 88.75883728 -84.68094819 85.88523265 -82.125 82.5625 C-79.86842716 79.84133864 -77.43782796 77.73131032 -74.734375 75.47265625 C-71.56194832 72.77895162 -68.71232192 69.93338735 -66.1875 66.625 C-63.72434879 63.66921855 -61.00378478 61.32293866 -58.0859375 58.828125 C-54.90125725 56.03705691 -51.96348438 53.02159191 -49 50 C-48.113125 49.13375 -47.22625 48.2675 -46.3125 47.375 C-43.9792956 45.07068716 -43.9792956 45.07068716 -42.125 42.5625 C-39.86842716 39.84133864 -37.43782796 37.73131032 -34.734375 35.47265625 C-31.53825929 32.75883728 -28.68094819 29.88523265 -26.125 26.5625 C-23.86842716 23.84133864 -21.43782796 21.73131032 -18.734375 19.47265625 C-15.53825929 16.75883728 -12.68094819 13.88523265 -10.125 10.5625 C-7.81082562 7.77187796 -5.29472177 5.60963501 -2.48828125 3.33203125 C-0.87117455 2.04920055 -0.87117455 2.04920055 0 0 Z " fill="#FEFEFE" transform="translate(998,414)"/>
<path d="M0 0 C2.02712409 0.33161191 4.0551444 0.65773332 6.08325195 0.98327637 C7.15833008 1.15762207 8.2334082 1.33196777 9.34106445 1.51159668 C10.22850342 1.65516602 11.11594238 1.79873535 12.03027344 1.94665527 C14.86257217 2.48538887 17.49965445 3.41696222 20.2199707 4.36315918 C21.60322169 4.65118052 22.99065981 4.91929882 24.38012695 5.17565918 C31.10030412 6.49190716 37.73148522 8.15701042 44.37158203 9.82214355 C46.54459884 10.36619567 48.71912342 10.90390511 50.89379883 11.44128418 C52.29037838 11.78986141 53.68686615 12.13880661 55.08325195 12.48815918 C56.33404541 12.8001123 57.58483887 13.11206543 58.87353516 13.43347168 C61.77160357 14.2385964 64.45030672 15.20471037 67.2199707 16.36315918 C68.54634205 16.66625576 69.88040253 16.93757187 71.2199707 17.17565918 C75.24449474 18.01410169 78.9022046 19.34229675 82.7199707 20.86315918 C87.87248913 22.91569002 92.77352184 24.34771956 98.2199707 25.36315918 C98.2199707 26.02315918 98.2199707 26.68315918 98.2199707 27.36315918 C99.1687207 27.45081543 100.1174707 27.53847168 101.0949707 27.62878418 C106.08346863 28.34500426 110.56417674 30.25092649 115.2199707 32.11315918 C122.81055631 35.08862086 130.40632365 37.83007333 138.1887207 40.25769043 C141.15919322 41.34099419 143.53890933 42.70695513 146.2199707 44.36315918 C147.95718898 45.10228621 149.70853965 45.80875006 151.4699707 46.48815918 C156.76384514 48.64226345 161.7583989 51.15617839 166.7824707 53.86315918 C175.00295524 58.2890134 183.23182634 62.69100815 192.2199707 65.36315918 C192.2199707 66.02315918 192.2199707 66.68315918 192.2199707 67.36315918 C193.0449707 67.61065918 193.8699707 67.85815918 194.7199707 68.11315918 C198.75193373 69.55314598 202.42335918 71.40134133 206.2199707 73.36315918 C207.71894612 74.11520486 209.21891138 74.86528157 210.7199707 75.61315918 C212.4524707 76.47940918 212.4524707 76.47940918 214.2199707 77.36315918 C214.2199707 78.02315918 214.2199707 78.68315918 214.2199707 79.36315918 C214.83485352 79.55651855 215.44973633 79.74987793 216.08325195 79.94909668 C216.89149414 80.2094873 217.69973633 80.46987793 218.5324707 80.73815918 C219.73323242 81.12101074 219.73323242 81.12101074 220.95825195 81.51159668 C223.2199707 82.36315918 223.2199707 82.36315918 226.2199707 84.36315918 C226.2199707 85.02315918 226.2199707 85.68315918 226.2199707 86.36315918 C226.8696582 86.58874512 227.5193457 86.81433105 228.1887207 87.04675293 C232.26566594 88.81728198 235.94268929 91.09341537 239.7199707 93.42565918 C240.91819458 94.1621167 240.91819458 94.1621167 242.140625 94.91345215 C249.00628582 99.16654074 255.62977066 103.69405674 262.2199707 108.36315918 C263.87240974 109.50738317 265.52865766 110.64593419 267.18530273 111.78405762 C276.72626706 118.3468039 286.01517463 125.14974896 295.07885742 132.35339355 C299.27551474 135.6717347 303.57334401 138.77561776 308.03637695 141.73034668 C310.69074643 143.71518826 312.88814294 146.0099385 315.2199707 148.36315918 C316.97130323 149.84485456 318.7426492 151.30319375 320.5324707 152.73815918 C326.02382702 157.18741423 331.5048056 161.62930103 336.48950195 166.64831543 C338.54871678 168.69574648 340.62541003 170.67140974 342.77075195 172.62487793 C343.3862793 173.18626465 344.00180664 173.74765137 344.63598633 174.3260498 C345.91683714 175.49081939 347.20077608 176.65220078 348.48754883 177.8104248 C349.40117187 178.6467041 349.40117187 178.6467041 350.33325195 179.49987793 C350.88795166 180.00220947 351.44265137 180.50454102 352.01416016 181.02209473 C353.2199707 182.36315918 353.2199707 182.36315918 353.2199707 184.36315918 C353.7562207 184.59003418 354.2924707 184.81690918 354.8449707 185.05065918 C360.58529566 188.22294403 365.4307416 193.02867707 369.2199707 198.36315918 C369.2199707 199.02315918 369.2199707 199.68315918 369.2199707 200.36315918 C370.0552832 200.70347168 370.0552832 200.70347168 370.9074707 201.05065918 C376.04588987 203.96705925 379.49054091 208.88784343 383.2199707 213.36315918 C384.3646582 214.50784668 384.3646582 214.50784668 385.5324707 215.67565918 C389.2731382 219.41632667 392.73036063 223.38924961 396.2199707 227.36315918 C396.85676758 228.08374512 397.49356445 228.80433105 398.1496582 229.54675293 C399.8499837 231.47695075 401.53789208 233.41705809 403.2199707 235.36315918 C404.0243457 236.29128418 404.8287207 237.21940918 405.6574707 238.17565918 C407.2199707 240.36315918 407.2199707 240.36315918 407.2199707 243.36315918 C408.10942383 243.73513428 408.10942383 243.73513428 409.0168457 244.11462402 C411.56224897 245.55713203 412.73596611 246.9938702 414.4699707 249.33972168 C415.07454102 250.14570801 415.67911133 250.95169434 416.30200195 251.78210449 C416.93493164 252.63385254 417.56786133 253.48560059 418.2199707 254.36315918 C419.52966326 256.06064147 420.84221023 257.75592492 422.1574707 259.44909668 C423.5121378 261.21173302 424.86630038 262.97475722 426.2199707 264.73815918 C426.89286133 265.6069873 427.56575195 266.47581543 428.2590332 267.37097168 C441.2199707 284.28524533 441.2199707 284.28524533 441.2199707 288.36315918 C442.2099707 288.69315918 443.1999707 289.02315918 444.2199707 289.36315918 C446.0246582 291.78503418 446.0246582 291.78503418 448.0949707 295.11315918 C448.47500244 295.71934082 448.85503418 296.32552246 449.24658203 296.95007324 C450.57972958 299.08247687 451.89950055 301.22288394 453.2199707 303.36315918 C454.30925996 305.11350438 455.39913137 306.86348738 456.48950195 308.61315918 C459.74873534 313.85356806 462.99822909 319.09960353 466.2199707 324.36315918 C466.76588867 325.252854 467.31180664 326.14254883 467.87426758 327.0592041 C468.4047168 327.93165771 468.93516602 328.80411133 469.48168945 329.70300293 C469.95695068 330.48280518 470.43221191 331.26260742 470.921875 332.06604004 C472.59919361 335.03423466 473.91693584 338.08926592 475.1652832 341.25769043 C476.19381105 343.50268649 476.19381105 343.50268649 478.1027832 345.66784668 C480.56024952 348.79635546 482.25591986 352.11121748 483.9699707 355.67565918 C484.67155516 357.10806767 485.37338502 358.54035598 486.07543945 359.97253418 C486.43041504 360.70149902 486.78539062 361.43046387 487.15112305 362.18151855 C488.50508719 364.94511462 489.89185334 367.69146279 491.27978516 370.43811035 C498.05826095 383.87457772 504.27301519 397.54060473 510.2199707 411.36315918 C510.68532227 412.43694824 511.15067383 413.5107373 511.63012695 414.61706543 C514.14895247 420.52513628 516.2876936 426.46685015 518.2590332 432.57800293 C519.10089331 435.01802836 520.05276142 437.28443201 521.1574707 439.61315918 C523.28582062 444.22596425 524.74593139 449.01034409 526.22143555 453.85949707 C527.8225563 459.12058292 529.52706565 464.33914504 531.2824707 469.55065918 C532.03169701 471.79571092 532.77937525 474.04127245 533.52661133 476.2869873 C534.16362923 478.19445217 534.80860402 480.09925492 535.4543457 482.00378418 C537.68302816 488.81903054 538.93252821 495.19146894 539.2199707 502.36315918 C539.8799707 502.36315918 540.5399707 502.36315918 541.2199707 502.36315918 C541.97465239 505.46620531 542.72271126 508.57081806 543.4699707 511.67565918 C543.67493164 512.51806152 543.87989258 513.36046387 544.09106445 514.22839355 C548.25657695 531.58469562 551.51237146 549.05612407 554.3449707 566.67565918 C554.61026581 568.31567902 554.61026581 568.31567902 554.88092041 569.98883057 C557.34332382 585.33076573 559.23871038 600.46781481 559.8684082 615.99597168 C560.05048757 620.47229091 560.56663234 624.77270781 561.24731445 629.19909668 C563.04143893 641.91994931 562.47678482 654.91109721 562.41558838 667.73083496 C562.4048538 670.55055985 562.40516732 673.3702359 562.40558434 676.18997765 C562.4048868 698.08100821 562.23866401 719.96767145 559.7199707 741.73815918 C559.58977539 742.94858887 559.45958008 744.15901855 559.32543945 745.40612793 C558.36171177 754.07967704 558.36171177 754.07967704 557.2199707 756.36315918 C556.97394827 758.37674115 556.77825879 760.39655913 556.60668945 762.41784668 C556.49518555 763.66291992 556.38368164 764.90799316 556.26879883 766.1907959 C556.18094116 767.18173248 556.18094116 767.18173248 556.09130859 768.19268799 C554.99657156 780.37327302 553.36498718 792.25228243 550.6887207 804.19616699 C549.94114793 807.65213364 549.33919844 811.13239377 548.7199707 814.61315918 C547.35880978 821.94135526 545.61298272 829.12272732 543.74047852 836.33239746 C543.20511064 838.42113575 542.69021074 840.5140149 542.1809082 842.60925293 C540.68045676 848.7685883 539.16358596 854.86629771 537.03710938 860.8458252 C536.03180059 863.94284907 535.23442023 867.07299433 534.4230957 870.22644043 C532.40492632 877.91669452 530.00966456 885.45351883 527.4699707 892.98815918 C527.14764969 893.95013718 527.14764969 893.95013718 526.81881714 894.93154907 C522.12232244 908.93654436 517.08165769 922.80082459 511.2199707 936.36315918 C510.58811432 937.92289915 509.96242659 939.48516262 509.3449707 941.05065918 C508.63709795 942.82167668 507.92874201 944.5925011 507.2199707 946.36315918 C506.85000977 947.29257324 506.48004883 948.2219873 506.09887695 949.17956543 C503.31817576 956.02647229 500.16886451 962.58147933 496.77075195 969.13659668 C495.31247715 972.17068984 494.20572125 975.14854411 493.2199707 978.36315918 C492.5599707 978.36315918 491.8999707 978.36315918 491.2199707 978.36315918 C490.9105957 979.64190918 490.6012207 980.92065918 490.2824707 982.23815918 C489.74391826 984.46417593 489.24627071 986.31055917 488.2199707 988.36315918 C487.5599707 988.36315918 486.8999707 988.36315918 486.2199707 988.36315918 C485.8899707 990.34315918 485.5599707 992.32315918 485.2199707 994.36315918 C484.5599707 994.36315918 483.8999707 994.36315918 483.2199707 994.36315918 C482.9518457 995.04378418 482.6837207 995.72440918 482.4074707 996.42565918 C481.8196582 997.87972168 481.8196582 997.87972168 481.2199707 999.36315918 C480.6321582 1000.91003418 480.6321582 1000.91003418 480.0324707 1002.48815918 C478.16323751 1006.8818207 475.48053256 1010.75268139 472.84106445 1014.71472168 C471.18306816 1017.25067373 471.18306816 1017.25067373 470.27075195 1019.78112793 C468.90394932 1023.13970244 466.96610753 1026.04310186 464.9699707 1029.05065918 C462.33702194 1033.04595252 459.79198933 1037.06693593 457.36450195 1041.19128418 C453.69199868 1047.35246087 449.52543317 1053.12988365 445.34301758 1058.9510498 C441.58170769 1064.24489778 438.23827939 1069.61181142 435.2199707 1075.36315918 C434.5599707 1075.36315918 433.8999707 1075.36315918 433.2199707 1075.36315918 C432.94467529 1075.94331787 432.66937988 1076.52347656 432.38574219 1077.12121582 C430.40107178 1080.93801757 427.80095972 1084.32162511 425.2824707 1087.80065918 C424.70271484 1088.60253662 424.12295898 1089.40441406 423.52563477 1090.23059082 C419.17893918 1096.18085822 414.60224986 1101.8542756 409.77075195 1107.41394043 C407.33775017 1110.22698231 404.99013038 1113.09173937 402.6574707 1115.98815918 C398.85301064 1120.66376573 394.86445417 1125.13520822 390.7746582 1129.56237793 C388.76880824 1131.76145197 386.80185095 1133.9810236 384.84887695 1136.22644043 C376.07790607 1146.27926792 366.79147675 1155.88423592 357.4074707 1165.36315918 C356.71983643 1166.06376465 356.03220215 1166.76437012 355.32373047 1167.48620605 C354.68491943 1168.12622559 354.0461084 1168.76624512 353.38793945 1169.42565918 C352.54138794 1170.27837402 352.54138794 1170.27837402 351.67773438 1171.14831543 C350.2199707 1172.36315918 350.2199707 1172.36315918 348.2199707 1172.36315918 C348.00211914 1172.91616699 347.78426758 1173.4691748 347.55981445 1174.03894043 C345.79419788 1177.10174469 343.39478306 1179.22714311 340.7824707 1181.55065918 C340.25403564 1182.02825684 339.72560059 1182.50585449 339.18115234 1182.9979248 C334.73960179 1186.97886522 330.15753233 1190.76545944 325.49731445 1194.48815918 C323.24837945 1196.26610392 323.24837945 1196.26610392 321.53637695 1198.11315918 C320.2199707 1199.36315918 320.2199707 1199.36315918 318.2199707 1199.36315918 C318.2199707 1200.02315918 318.2199707 1200.68315918 318.2199707 1201.36315918 C316.13080337 1203.15129376 314.03330349 1204.82910801 311.8449707 1206.48815918 C310.54777065 1207.48773748 309.25089714 1208.4877397 307.9543457 1209.48815918 C306.99431641 1210.2248584 306.99431641 1210.2248584 306.01489258 1210.97644043 C303.68056841 1212.77989001 301.38660635 1214.63088584 299.0949707 1216.48815918 C294.11472121 1220.48045674 289.02765518 1224.31969776 283.89868164 1228.11853027 C282.73122607 1228.98410452 281.56532205 1229.85177375 280.40063477 1230.72106934 C273.35807511 1235.97662947 266.30880864 1241.05859667 258.8293457 1245.68347168 C256.03035599 1247.48521656 253.38447734 1249.43104263 250.7199707 1251.42565918 C246.26674058 1254.71634849 241.70791768 1257.41306871 236.8059082 1259.97644043 C233.68392098 1261.65061787 230.73211676 1263.52768632 227.77856445 1265.48034668 C226.2199707 1266.36315918 226.2199707 1266.36315918 224.2199707 1266.36315918 C224.2199707 1267.02315918 224.2199707 1267.68315918 224.2199707 1268.36315918 C223.26735352 1268.82206543 222.31473633 1269.28097168 221.33325195 1269.75378418 C220.06616499 1270.37324892 218.79924681 1270.99305899 217.5324707 1271.61315918 C216.59371094 1272.06368652 216.59371094 1272.06368652 215.63598633 1272.52331543 C212.70445864 1273.96605681 210.25211609 1275.33704417 207.70043945 1277.41003418 C205.27601951 1279.31902626 202.97907148 1280.3589181 200.14970398 1281.5357666 C196.96309386 1282.90205778 193.8908982 1284.48637513 190.80200195 1286.05847168 C189.37804061 1286.77768548 187.95396402 1287.49667113 186.52978516 1288.2154541 C185.79490875 1288.58705658 185.06003235 1288.95865906 184.30288696 1289.34152222 C166.23820512 1298.46479723 148.08060224 1307.00544028 129.2199707 1314.36315918 C127.65475609 1314.99569846 126.08966173 1315.62853534 124.5246582 1316.26159668 C95.97571604 1327.69031867 66.47091578 1336.99505878 36.3996582 1343.44128418 C32.56094427 1344.27099253 28.76905748 1345.24140953 24.9699707 1346.23815918 C7.13019492 1350.81436861 -11.10070945 1354.47412951 -29.44799805 1356.13024902 C-34.19564655 1356.60441744 -38.92336169 1357.25268143 -43.6550293 1357.86315918 C-51.16844234 1358.8142918 -58.68320846 1359.71846812 -66.2175293 1360.48815918 C-67.29526611 1360.60127441 -67.29526611 1360.60127441 -68.39477539 1360.7166748 C-70.85488 1360.9597833 -73.3157208 1361.16691955 -75.7800293 1361.36315918 C-77.38769165 1361.49343506 -77.38769165 1361.49343506 -79.02783203 1361.62634277 C-94.31653756 1362.69415008 -109.64807356 1362.69890629 -124.9675293 1362.73815918 C-126.09867598 1362.74139002 -126.09867598 1362.74139002 -127.2526741 1362.74468613 C-169.45405316 1362.84148998 -212.71224437 1360.81022727 -253.7800293 1350.36315918 C-255.48421184 1350.06732927 -257.1926911 1349.79489551 -258.9050293 1349.55065918 C-272.67164405 1347.34379727 -286.28141373 1343.81721669 -299.7800293 1340.36315918 C-301.28049805 1339.99577637 -301.28049805 1339.99577637 -302.8112793 1339.62097168 C-309.20160203 1338.05566535 -315.49828584 1336.31630631 -321.7800293 1334.36315918 C-322.92729492 1334.0151123 -324.07456055 1333.66706543 -325.2565918 1333.30847168 C-333.00736565 1330.94191396 -340.68985869 1328.40523413 -348.3425293 1325.73815918 C-349.59138916 1325.30455078 -349.59138916 1325.30455078 -350.86547852 1324.86218262 C-354.45534249 1323.59960579 -358.0001698 1322.30333477 -361.48706055 1320.77722168 C-365.55109785 1319.03204789 -369.69439782 1317.74049886 -373.9128418 1316.42565918 C-376.80274622 1315.35474092 -379.14455194 1313.94444559 -381.7800293 1312.36315918 C-383.61743829 1311.70979894 -385.4736107 1311.10752064 -387.3425293 1310.55065918 C-392.84543279 1308.78837966 -397.79357599 1306.46001804 -402.9128418 1303.80065918 C-405.50382328 1302.50163849 -408.07594212 1301.39986992 -410.7800293 1300.36315918 C-416.64983274 1298.08977499 -422.17731877 1295.22073999 -427.7800293 1292.36315918 C-428.99665455 1291.7573376 -430.21413673 1291.15323454 -431.43237305 1290.55065918 C-438.92517709 1286.8421858 -446.3717676 1283.05041552 -453.7800293 1279.17565918 C-454.55677002 1278.77186035 -455.33351074 1278.36806152 -456.13378906 1277.95202637 C-460.46693441 1275.67343376 -464.65747068 1273.25693613 -468.7878418 1270.62902832 C-470.82350181 1269.33553602 -472.87602755 1268.07410062 -474.9362793 1266.82019043 C-475.64083252 1266.39117432 -476.34538574 1265.9621582 -477.07128906 1265.5201416 C-477.80017334 1265.0764624 -478.52905762 1264.6327832 -479.2800293 1264.17565918 C-487.81847957 1258.96556165 -496.32693588 1253.71073845 -504.7800293 1248.36315918 C-506.2630957 1247.4292334 -506.2630957 1247.4292334 -507.77612305 1246.47644043 C-508.60241211 1245.94405762 -509.42870117 1245.4116748 -510.2800293 1244.86315918 C-510.9709668 1244.41972168 -511.6619043 1243.97628418 -512.3737793 1243.51940918 C-512.8378418 1243.13784668 -513.3019043 1242.75628418 -513.7800293 1242.36315918 C-513.7800293 1241.70315918 -513.7800293 1241.04315918 -513.7800293 1240.36315918 C-514.85317383 1239.9841748 -514.85317383 1239.9841748 -515.94799805 1239.59753418 C-519.02483215 1238.2564589 -521.40528883 1236.61983947 -524.0925293 1234.61315918 C-525.05674805 1233.89772949 -526.0209668 1233.1822998 -527.0144043 1232.44519043 C-532.90734105 1228.00884115 -532.90734105 1228.00884115 -535.7253418 1225.87487793 C-539.01438516 1223.45499241 -542.39642432 1221.16975553 -545.77612305 1218.87878418 C-547.7800293 1217.36315918 -547.7800293 1217.36315918 -548.7800293 1215.36315918 C-549.48385742 1214.94808105 -550.18768555 1214.53300293 -550.9128418 1214.10534668 C-554.51493306 1211.91661003 -557.50564586 1209.27496134 -560.6550293 1206.48815918 C-561.98954084 1205.31874696 -563.32417996 1204.14948034 -564.65893555 1202.98034668 C-565.68011475 1202.08267578 -565.68011475 1202.08267578 -566.72192383 1201.16687012 C-569.3640516 1198.85132564 -572.02328638 1196.55599922 -574.68334961 1194.2611084 C-592.04743338 1179.27292867 -592.04743338 1179.27292867 -598.7800293 1172.36315918 C-603.94771669 1167.04322612 -603.94771669 1167.04322612 -609.5300293 1162.17565918 C-612.05571542 1160.14107869 -613.90404426 1158.00343441 -615.7800293 1155.36315918 C-615.7800293 1154.70315918 -615.7800293 1154.04315918 -615.7800293 1153.36315918 C-616.36880859 1153.10341309 -616.95758789 1152.84366699 -617.56420898 1152.5760498 C-619.93309491 1151.27937447 -621.39447458 1149.92445363 -623.2331543 1147.95690918 C-623.8519043 1147.29562012 -624.4706543 1146.63433105 -625.1081543 1145.95300293 C-625.74237305 1145.26335449 -626.3765918 1144.57370605 -627.0300293 1143.86315918 C-627.6797168 1143.17351074 -628.3294043 1142.4838623 -628.9987793 1141.77331543 C-633.7800293 1136.62041364 -633.7800293 1136.62041364 -633.7800293 1134.36315918 C-634.37557617 1134.10147949 -634.97112305 1133.8397998 -635.5847168 1133.57019043 C-642.18765179 1129.93975108 -646.76159286 1121.88919024 -651.2277832 1115.93225098 C-652.95228341 1113.64844409 -654.66608916 1111.47594139 -656.7019043 1109.46081543 C-659.73406849 1106.40015346 -662.2470418 1102.9834504 -664.8425293 1099.55065918 C-665.68883911 1098.43582153 -665.68883911 1098.43582153 -666.55224609 1097.29846191 C-668.29985308 1094.99042641 -670.04097794 1092.67764636 -671.7800293 1090.36315918 C-672.33368164 1089.62807129 -672.88733398 1088.8929834 -673.45776367 1088.13562012 C-675.00923651 1086.07042075 -676.55264697 1083.99951032 -678.0925293 1081.92565918 C-678.56634033 1081.29361572 -679.04015137 1080.66157227 -679.52832031 1080.01037598 C-682.7800293 1075.59573152 -682.7800293 1075.59573152 -682.7800293 1073.36315918 C-683.4400293 1073.36315918 -684.1000293 1073.36315918 -684.7800293 1073.36315918 C-686.19018555 1071.41394043 -686.19018555 1071.41394043 -687.8425293 1068.67565918 C-690.45005031 1064.44986224 -693.15904512 1060.35199412 -696.0300293 1056.30065918 C-704.43339787 1044.30457211 -711.70324385 1031.55933225 -719.0925293 1018.92565918 C-719.66704834 1017.94363525 -720.24156738 1016.96161133 -720.83349609 1015.9498291 C-723.6671456 1011.08035374 -726.46174705 1006.19043404 -729.19799805 1001.26550293 C-729.69452881 1000.37210205 -730.19105957 999.47870117 -730.70263672 998.55822754 C-731.7800293 996.36315918 -731.7800293 996.36315918 -731.7800293 994.36315918 C-732.4400293 994.36315918 -733.1000293 994.36315918 -733.7800293 994.36315918 C-734.18092773 993.42858887 -734.58182617 992.49401855 -734.99487305 991.53112793 C-739.0181151 982.21332339 -743.26728436 973.02191579 -747.6394043 963.86315918 C-749.9791217 958.96010537 -752.24583114 954.02576482 -754.5065918 949.08581543 C-755.60877493 946.72930731 -756.76659708 944.42021317 -757.9675293 942.11315918 C-759.68777733 938.72929679 -760.86699653 935.28877301 -762.0144043 931.67565918 C-762.76744938 929.40115567 -763.62178979 927.20487932 -764.5300293 924.98815918 C-770.32494287 910.67781917 -775.29577827 896.13090293 -779.7800293 881.36315918 C-780.08553711 880.36816406 -780.39104492 879.37316895 -780.70581055 878.34802246 C-788.04682491 854.39101692 -794.10927766 830.28529818 -799.0925293 805.73815918 C-799.34921387 804.48913315 -799.34921387 804.48913315 -799.61108398 803.21487427 C-801.59893494 793.49129844 -803.22902256 783.83825279 -804.16902161 773.95285034 C-804.48344012 770.0318489 -804.48344012 770.0318489 -805.7800293 766.36315918 C-806.13650147 763.56792309 -806.44489754 760.78400925 -806.7175293 757.98034668 C-806.80252686 757.13328156 -806.88752441 756.28621643 -806.97509766 755.41348267 C-807.1551506 753.60962583 -807.33323338 751.80557144 -807.50952148 750.00134277 C-807.77425025 747.29719096 -808.04612828 744.59383437 -808.3190918 741.89050293 C-808.83638302 736.71735183 -809.31732269 731.5414555 -809.7800293 726.36315918 C-809.89330566 725.12018066 -810.00658203 723.87720215 -810.12329102 722.59655762 C-811.13068494 709.46990955 -810.9315374 696.28760536 -810.91040039 683.1307373 C-810.90474748 679.59928143 -810.90806203 676.06790165 -810.91383934 672.53644848 C-810.9466982 648.86795351 -810.89036101 625.31428901 -807.0534668 601.90222168 C-806.79547714 600.32672985 -806.53766732 598.75120855 -806.2800293 597.17565918 C-806.15217041 596.39883789 -806.02431152 595.6220166 -805.89257812 594.82165527 C-804.3877485 585.38497929 -803.58499672 575.88071516 -802.7800293 566.36315918 C-802.1200293 566.36315918 -801.4600293 566.36315918 -800.7800293 566.36315918 C-800.73104492 565.53815918 -800.68206055 564.71315918 -800.6315918 563.86315918 C-799.04159676 539.30047725 -799.04159676 539.30047725 -795.4987793 528.63659668 C-794.51400527 525.5217136 -793.92360287 522.37482915 -793.3190918 519.16784668 C-792.23861057 513.54621246 -790.98934346 507.95825271 -789.7800293 502.36315918 C-789.1200293 502.36315918 -788.4600293 502.36315918 -787.7800293 502.36315918 C-787.74699707 501.69163818 -787.71396484 501.02011719 -787.67993164 500.32824707 C-787.21011055 493.35437822 -785.77107133 487.35615994 -783.4050293 480.80065918 C-782.79154325 479.04988439 -782.17955823 477.29858289 -781.5690918 475.54675293 C-781.26914307 474.69121826 -780.96919434 473.83568359 -780.66015625 472.95422363 C-779.24656656 468.79266263 -778.0087172 464.58235003 -776.7800293 460.36315918 C-774.78502462 453.55890369 -772.73996316 447.02697807 -769.71362305 440.60925293 C-768.64760122 438.04455606 -767.96299777 435.49192413 -767.2800293 432.80065918 C-766.21895411 428.66533373 -764.82895954 425.19403349 -762.8112793 421.44909668 C-761.60899187 419.01719712 -760.73251909 416.5504685 -759.8425293 413.98815918 C-758.22484347 409.38885634 -756.24207062 405.15434856 -753.9987793 400.83190918 C-752.7785092 398.36008001 -751.76501415 395.87432929 -750.7800293 393.30065918 C-749.18908013 389.1885688 -747.22067369 385.49108554 -745.01831055 381.67956543 C-742.90545757 377.72713067 -741.34688337 373.55602566 -739.7800293 369.36315918 C-739.1200293 369.36315918 -738.4600293 369.36315918 -737.7800293 369.36315918 C-737.68206055 368.67866699 -737.5840918 367.9941748 -737.4831543 367.28894043 C-735.55661052 359.27237773 -730.6158819 351.43567796 -726.12768555 344.56628418 C-724.72493322 342.27308908 -723.47959898 339.91893355 -722.24316406 337.53283691 C-713.91482314 321.47360006 -703.95964121 306.29981991 -693.7800293 291.36315918 C-693.32354004 290.68881836 -692.86705078 290.01447754 -692.39672852 289.31970215 C-687.68093247 282.35446336 -682.97979937 275.41413961 -677.7253418 268.83972168 C-674.46983097 264.69515569 -671.35003098 260.44707242 -668.21777344 256.2088623 C-665.35804976 252.36745659 -662.38141753 248.69331407 -659.23730469 245.08190918 C-656.39792958 241.7330734 -653.81923839 238.17721856 -651.2175293 234.64245605 C-650.11729192 233.18056658 -648.95362914 231.76683525 -647.7800293 230.36315918 C-647.1200293 230.36315918 -646.4600293 230.36315918 -645.7800293 230.36315918 C-645.5119043 229.78565918 -645.2437793 229.20815918 -644.9675293 228.61315918 C-643.75073741 226.30765875 -642.4766905 224.34259726 -640.7800293 222.36315918 C-640.1200293 222.36315918 -639.4600293 222.36315918 -638.7800293 222.36315918 C-638.56604492 221.83077637 -638.35206055 221.29839355 -638.1315918 220.74987793 C-636.27025817 217.4629564 -633.74150138 214.89459746 -631.1550293 212.17565918 C-630.07085363 211.02280492 -628.98752355 209.86915487 -627.9050293 208.71472168 C-627.10838867 207.86635742 -627.10838867 207.86635742 -626.2956543 207.00085449 C-623.54822171 204.03214029 -620.92461155 200.95499951 -618.3034668 197.87487793 C-616.7800293 196.36315918 -616.7800293 196.36315918 -614.7800293 196.36315918 C-614.4500293 195.37315918 -614.1200293 194.38315918 -613.7800293 193.36315918 C-613.1200293 193.36315918 -612.4600293 193.36315918 -611.7800293 193.36315918 C-611.7800293 192.70315918 -611.7800293 192.04315918 -611.7800293 191.36315918 C-610.3112793 189.91784668 -610.3112793 189.91784668 -608.2800293 188.23815918 C-603.87644019 184.49355788 -599.82551495 180.48765822 -595.7800293 176.36315918 C-584.67089241 165.03704697 -584.67089241 165.03704697 -579.7800293 161.36315918 C-579.1200293 161.36315918 -578.4600293 161.36315918 -577.7800293 161.36315918 C-577.4500293 160.37315918 -577.1200293 159.38315918 -576.7800293 158.36315918 C-572.32288644 154.36315918 -572.32288644 154.36315918 -569.7800293 154.36315918 C-569.7800293 153.70315918 -569.7800293 153.04315918 -569.7800293 152.36315918 C-567.87586374 150.76172264 -565.96758126 149.27391174 -563.9675293 147.80065918 C-562.76201408 146.89455297 -561.55760358 145.98697535 -560.35424805 145.07800293 C-559.74887207 144.62151367 -559.14349609 144.16502441 -558.51977539 143.69470215 C-556.05702702 141.80979763 -553.6678119 139.84180917 -551.2800293 137.86315918 C-532.46923533 122.36065892 -512.45408655 108.26403219 -491.7800293 95.36315918 C-489.92524531 94.17662361 -488.07109058 92.9891039 -486.2175293 91.80065918 C-481.93187245 89.073423 -477.60707544 86.42425365 -473.2409668 83.82800293 C-471.59574554 82.84870456 -469.95511069 81.86166104 -468.3190918 80.86706543 C-462.23664039 77.17346324 -456.05272329 73.72213604 -449.7800293 70.36315918 C-448.55733339 69.69916971 -447.33467961 69.03510264 -446.11206055 68.37097168 C-432.02410469 60.76833046 -417.60420663 53.75721921 -402.94677734 47.31896973 C-401.51152524 46.68584162 -400.08057109 46.04287207 -398.65429688 45.38977051 C-392.37134847 42.52680708 -385.94539679 40.1211883 -379.4675293 37.73815918 C-377.34567823 36.95635734 -375.2245526 36.17258309 -373.10424805 35.38659668 C-372.17700928 35.04547852 -371.24977051 34.70436035 -370.29443359 34.35290527 C-367.81090255 33.41829116 -367.81090255 33.41829116 -365.63549805 32.29016113 C-363.47063971 31.20858651 -361.25832753 30.64142613 -358.9309082 30.00622559 C-354.19932974 28.59158567 -349.59821256 26.76141111 -344.9675293 25.05065918 C-335.90040975 21.73944271 -326.84446625 18.79464563 -317.51049805 16.34362793 C-314.53030892 15.56035309 -311.59502934 14.71910547 -308.6550293 13.80065918 C-296.93543788 10.24505433 -284.91728096 7.66889729 -272.96655273 5.02575684 C-272.06195312 4.82385742 -271.15735352 4.62195801 -270.2253418 4.41394043 C-269.41597168 4.23516357 -268.60660156 4.05638672 -267.77270508 3.87219238 C-265.72553604 3.42421459 -265.72553604 3.42421459 -263.7800293 2.36315918 C-261.95236948 2.01902703 -260.11760073 1.71218771 -258.2800293 1.42565918 C-254.52488184 0.83768214 -250.80773477 0.16604681 -247.08862305 -0.61340332 C-241.53733705 -1.73669171 -235.96603821 -2.42390192 -230.3425293 -3.07434082 C-223.9070201 -3.81978363 -217.50829207 -4.66700697 -211.11802673 -5.73126221 C-200.52900737 -7.48302839 -189.98746555 -8.61181014 -179.2800293 -9.32434082 C-178.35571106 -9.38654816 -177.43139282 -9.44875549 -176.47906494 -9.5128479 C-116.92039035 -13.36767136 -58.83894162 -9.64538149 0 0 Z " fill="#7ED4A5" transform="translate(1537.780029296875,737.6368408203125)"/>
<path d="M0 0 C0 0.33 0 0.66 0 1 C-6.51396129 2.66957232 -12.35482129 3.26029841 -19.0625 3.125 C-19.92810547 3.11597656 -20.79371094 3.10695313 -21.68554688 3.09765625 C-23.79048779 3.07439723 -25.89528342 3.03854008 -28 3 C-28 2.67 -28 2.34 -28 2 C-18.57182803 0.53948097 -9.56470344 -0.29032827 0 0 Z " fill="#A0DDBB" transform="translate(1352,730)"/>
<path d="M0 0 C-1.216875 0.433125 -2.43375 0.86625 -3.6875 1.3125 C-7.04932424 2.56726538 -9.94794233 4.10277496 -13 6 C-15.6875 7.25 -15.6875 7.25 -18 8 C-18.66 7.67 -19.32 7.34 -20 7 C-21.32860925 6.64830932 -22.66158328 6.31229724 -24 6 C-20.75622826 4.79497901 -17.50417311 3.61411218 -14.25 2.4375 C-13.32960938 2.09525391 -12.40921875 1.75300781 -11.4609375 1.40039062 C-10.57148437 1.08134766 -9.68203125 0.76230469 -8.765625 0.43359375 C-7.94868164 0.13509521 -7.13173828 -0.16340332 -6.29003906 -0.47094727 C-3.78690737 -1.04922939 -2.40128262 -0.83176958 0 0 Z " fill="#97DBB6" transform="translate(1210,759)"/>
<path d="M0 0 C0.33 0.66 0.66 1.32 1 2 C0.06558465 3.27310312 -0.87267111 4.543388 -1.8125 5.8125 C-2.59560547 6.87404297 -2.59560547 6.87404297 -3.39453125 7.95703125 C-4.84252498 9.79961207 -6.23101505 11.46364869 -8 13 C-8.66 13 -9.32 13 -10 13 C-10.33 13.99 -10.66 14.98 -11 16 C-11.99 15.67 -12.98 15.34 -14 15 C-13.01 14.67 -12.02 14.34 -11 14 C-10.31432185 12.67634306 -9.65183228 11.34064794 -9 10 C-7.50057132 8.21367703 -5.95502047 6.46545079 -4.375 4.75 C-3.55773437 3.85796875 -2.74046875 2.9659375 -1.8984375 2.046875 C-1.27195312 1.37140625 -0.64546875 0.6959375 0 0 Z " fill="#9BDCB9" transform="translate(910,946)"/>
<path d="M0 0 C1.14981574 3.80323668 0.51561044 5.34470424 -1 9 C-1.16798262 11.70886941 -1.16798262 11.70886941 -1 14 C-1.99 14.495 -1.99 14.495 -3 15 C-3.33 15.99 -3.66 16.98 -4 18 C-4.66 18 -5.32 18 -6 18 C-4.23536928 11.89262558 -2.30442525 5.92566493 0 0 Z M0 10 C0.33 10.66 0.66 11.32 1 12 C0.34 11.67 -0.32 11.34 -1 11 C-0.67 10.67 -0.34 10.34 0 10 Z " fill="#9BDDB9" transform="translate(780,1146)"/>
<path d="M0 0 C1.66055407 5.96289872 -0.25417944 9.61819171 -3 15 C-3.69971973 16.98867713 -4.37664397 18.98608051 -5 21 C-6.35196616 18.29606768 -5.65816133 17.28218182 -4.75 14.4375 C-4.47027344 13.55191406 -4.19054687 12.66632813 -3.90234375 11.75390625 C-3.60457031 10.84511719 -3.30679688 9.93632813 -3 9 C-2.71253906 8.12214844 -2.42507813 7.24429687 -2.12890625 6.33984375 C-1.42793042 4.22350045 -0.71874684 2.11036305 0 0 Z " fill="#98DBB7" transform="translate(764,1189)"/>
<path d="M0 0 C0.33 0.99 0.66 1.98 1 3 C0.38125 3.53625 -0.2375 4.0725 -0.875 4.625 C-3.2782902 7.31103023 -4.06022153 9.55414562 -5 13 C-5.99 12.67 -6.98 12.34 -8 12 C-6.49087042 7.01987239 -3.44338151 3.75740058 0 0 Z " fill="#9CDCBA" transform="translate(865,1000)"/>
<path d="M0 0 C2.97 1.98 2.97 1.98 6 4 C3 6 3 6 0.3125 5.625 C-0.450625 5.41875 -1.21375 5.2125 -2 5 C-1.34 3.35 -0.68 1.7 0 0 Z " fill="#89D6AC" transform="translate(1866,898)"/>
<path d="M0 0 C0.66 0.33 1.32 0.66 2 1 C-2 3 -6 5 -10 7 C-10.66 6.34 -11.32 5.68 -12 5 C-10.56328432 4.35242375 -9.12559584 3.70700547 -7.6875 3.0625 C-6.88699219 2.70285156 -6.08648438 2.34320312 -5.26171875 1.97265625 C-3 1 -3 1 0 0 Z " fill="#A4E0C0" transform="translate(1157,776)"/>
<path d="M0 0 C0 3.13751221 -0.35179805 4.39757586 -2 7 C-2.99 7.33 -3.98 7.66 -5 8 C-5 8.66 -5 9.32 -5 10 C-5.66 9.67 -6.32 9.34 -7 9 C-4.69 6.03 -2.38 3.06 0 0 Z " fill="#9DDDBA" transform="translate(887,972)"/>
<path d="M0 0 C1.125 1.625 1.125 1.625 2 4 C1.16933916 7.46108684 0.52986895 9.47013105 -2 12 C-1.85831863 10.56208484 -1.71148957 9.1246763 -1.5625 7.6875 C-1.48128906 6.88699219 -1.40007813 6.08648438 -1.31640625 5.26171875 C-1 3 -1 3 0 0 Z " fill="#A2DEBD" transform="translate(752,1226)"/>
<path d="M0 0 C0.66 0.33 1.32 0.66 2 1 C-3.14285714 6.57142857 -3.14285714 6.57142857 -7 7 C-4.66666667 4.66666667 -2.33333333 2.33333333 0 0 Z " fill="#9FDDBB" transform="translate(979,881)"/>
<path d="M0 0 C-1.15173355 2.46800047 -2.04783565 4.04783565 -4 6 C-5.32 5.34 -6.64 4.68 -8 4 C-2.25 0 -2.25 0 0 0 Z " fill="#94DAB3" transform="translate(1067,821)"/>
<path d="M0 0 C0.66 0.33 1.32 0.66 2 1 C2 1.66 2 2.32 2 3 C-0.35438733 4.42944945 -1.48032433 5.08661261 -4.25 4.625 C-4.8275 4.41875 -5.405 4.2125 -6 4 C-4.02 2.68 -2.04 1.36 0 0 Z " fill="#9CDDBA" transform="translate(1057,826)"/>
<path d="M0 0 C0.33 0 0.66 0 1 0 C1.6875 3.3125 1.6875 3.3125 2 7 C0.5625 8.9375 0.5625 8.9375 -1 10 C-1.125 2.25 -1.125 2.25 0 0 Z " fill="#9FDEBB" transform="translate(745,1254)"/>
<path d="M0 0 C0 0.66 0 1.32 0 2 C-5.45769231 5.10096154 -5.45769231 5.10096154 -8.203125 4.58984375 C-8.79609375 4.39519531 -9.3890625 4.20054687 -10 4 C-8.71086513 3.32845067 -7.41859796 2.66291141 -6.125 2 C-5.40570312 1.62875 -4.68640625 1.2575 -3.9453125 0.875 C-2 0 -2 0 0 0 Z " fill="#9BDCB9" transform="translate(1112,797)"/>
</svg>
